<mxfile host="app.diagrams.net" modified="2024-03-28T07:36:06.246Z" agent="Mozilla/5.0 (Windows NT 10.0; Win64; x64) AppleWebKit/537.36 (KHTML, like Gecko) Chrome/123.0.0.0 Safari/537.36" version="23.1.5" etag="2hVy2fAhqu-CYzg7vSE_" type="github">
  <diagram name="第 1 页" id="RkNNzWLlxsYudj2sU9SP">
    <mxGraphModel>
      <root>
        <mxCell id="0" />
        <mxCell id="1" parent="0" />
      </root>
    </mxGraphModel>
  </diagram>
</mxfile>
